<svg width="71" height="50" viewBox="0 0 71 50" fill="none" xmlns="http://www.w3.org/2000/svg">
<path d="M41.6461 16.7727H39.0396L34.3521 34.1875H36.9586L41.6461 16.7727Z" fill="white"/>
<path d="M6.48171 32.2131C5.35955 32.2131 4.39364 31.9858 3.58398 31.5312C2.77906 31.072 2.1588 30.4233 1.72319 29.5852C1.28758 28.7424 1.06978 27.7457 1.06978 26.5952C1.06978 25.473 1.28758 24.4882 1.72319 23.6406C2.1588 22.7931 2.77196 22.1326 3.56268 21.6591C4.35813 21.1856 5.2909 20.9489 6.36097 20.9489C7.08067 20.9489 7.75065 21.0649 8.37092 21.2969C8.99592 21.5241 9.54042 21.8674 10.0044 22.3267C10.4732 22.786 10.8378 23.3636 11.0982 24.0597C11.3586 24.7509 11.4888 25.5606 11.4888 26.4886V27.3196H2.27717V25.4446H8.6408C8.6408 25.009 8.54611 24.6231 8.35671 24.2869C8.16732 23.9508 7.90453 23.688 7.56836 23.4986C7.23692 23.3045 6.85103 23.2074 6.41069 23.2074C5.95141 23.2074 5.54421 23.3139 5.1891 23.527C4.83872 23.7353 4.5641 24.017 4.36523 24.3722C4.16637 24.7225 4.06457 25.1132 4.05984 25.544V27.3267C4.05984 27.8665 4.15927 28.3329 4.35813 28.7259C4.56173 29.1188 4.84819 29.4219 5.21751 29.6349C5.58683 29.848 6.0248 29.9545 6.53143 29.9545C6.8676 29.9545 7.17537 29.9072 7.45472 29.8125C7.73408 29.7178 7.97319 29.5758 8.17205 29.3864C8.37092 29.197 8.52243 28.965 8.6266 28.6903L11.4249 28.875C11.2828 29.5473 10.9917 30.1345 10.5513 30.6364C10.1157 31.1335 9.55226 31.5218 8.86097 31.8011C8.17442 32.0758 7.38133 32.2131 6.48171 32.2131ZM16.4888 25.6932V32H13.4632V21.0909H16.3468V23.0156H16.4746C16.7161 22.3812 17.1209 21.8793 17.6891 21.5099C18.2573 21.1359 18.9462 20.9489 19.7559 20.9489C20.5134 20.9489 21.1739 21.1146 21.7374 21.446C22.3008 21.7775 22.7388 22.2509 23.0513 22.8665C23.3638 23.4773 23.5201 24.2064 23.5201 25.054V32H20.4945V25.5938C20.4992 24.9261 20.3288 24.4053 19.9831 24.0312C19.6375 23.6525 19.1616 23.4631 18.5556 23.4631C18.1484 23.4631 17.7885 23.5507 17.476 23.7259C17.1683 23.901 16.9268 24.1567 16.7516 24.4929C16.5811 24.8243 16.4935 25.2244 16.4888 25.6932Z" fill="#BDAE82"/>
<path d="M51.8949 32V21.0909H54.8281V22.9943H54.9418C55.1406 22.3172 55.4744 21.8059 55.9432 21.4602C56.4119 21.1098 56.9517 20.9347 57.5625 20.9347C57.714 20.9347 57.8774 20.9441 58.0526 20.9631C58.2277 20.982 58.3816 21.008 58.5142 21.0412V23.7259C58.3722 23.6832 58.1757 23.6454 57.9247 23.6122C57.6738 23.5791 57.4441 23.5625 57.2358 23.5625C56.7907 23.5625 56.393 23.6596 56.0426 23.8537C55.697 24.0431 55.4223 24.3082 55.2188 24.6491C55.0199 24.9901 54.9205 25.383 54.9205 25.8281V32H51.8949ZM67.0742 27.3551V21.0909H70.0998V32H67.195V30.0185H67.0813C66.8351 30.6577 66.4255 31.1714 65.8526 31.5597C65.2844 31.9479 64.5908 32.142 63.7717 32.142C63.0425 32.142 62.4009 31.9763 61.8469 31.6449C61.293 31.3134 60.8597 30.8423 60.5472 30.2315C60.2395 29.6207 60.0832 28.8892 60.0785 28.0369V21.0909H63.104V27.4972C63.1088 28.1411 63.2816 28.6501 63.6225 29.0241C63.9634 29.3982 64.4203 29.5852 64.9933 29.5852C65.3578 29.5852 65.6987 29.5024 66.016 29.3366C66.3332 29.1662 66.5889 28.9152 66.783 28.5838C66.9819 28.2524 67.079 27.8428 67.0742 27.3551Z" fill="white"/>
</svg>
